<svg width="48" height="48" viewBox="0 0 48 48" fill="none" xmlns="http://www.w3.org/2000/svg">
  <rect width="48" height="48" rx="12" fill="#4A2650"/>
  <circle cx="24" cy="23.5" r="12.6" fill="#E4C695"/>
  <circle cx="24" cy="19.3" r="11.5" fill="#4A2650"/>
  <path d="M24 25.8c-3.2-2.3-5.6-4.8-5.6-7.3 0-1.8 1.4-3.1 3.1-3.1 1 0 1.9.5 2.5 1.2.6-.7 1.5-1.2 2.5-1.2 1.7 0 3.1 1.3 3.1 3.1 0 2.5-2.4 5-5.6 7.3z" fill="#E4C695"/>
  <path d="M34.3 11l.8 2.2 2.2.8-2.2.8-.8 2.2-.8-2.2-2.2-.8 2.2-.8z" fill="#E4C695"/>
</svg>
